<?xml version="1.0" standalone="no"?>
<!DOCTYPE svg PUBLIC "-//W3C//DTD SVG 20010904//EN"
 "http://www.w3.org/TR/2001/REC-SVG-20010904/DTD/svg10.dtd">
<svg version="1.0" xmlns="http://www.w3.org/2000/svg"
 width="554.000000pt" height="450.000000pt" viewBox="0 0 554.000000 450.000000"
 preserveAspectRatio="xMidYMid meet">

<g transform="translate(0.000000,450.000000) scale(0.100000,-0.100000)"
fill="#000000" stroke="none">
<path d="M1440 3100 l0 -250 210 0 210 0 0 250 0 250 -210 0 -210 0 0 -250z"/>
<path d="M2330 3100 l0 -250 210 0 210 0 0 250 0 250 -210 0 -210 0 0 -250z"/>
<path d="M3205 3340 c-145 -15 -227 -59 -266 -145 -15 -33 -19 -66 -19 -192
l0 -153 200 0 199 0 3 68 3 67 393 3 392 2 -2 178 -3 177 -410 1 c-225 1 -446
-2 -490 -6z"/>
<path d="M3430 2681 l0 -161 145 0 145 0 0 -80 0 -80 -405 0 -405 0 0 -180 0
-181 523 3 522 3 45 27 c28 16 55 43 70 70 25 43 25 44 25 313 0 263 -1 271
-23 318 -17 34 -37 55 -70 75 l-47 27 -262 3 -263 3 0 -160z"/>
<path d="M1440 2180 l0 -180 210 0 210 0 0 180 0 180 -210 0 -210 0 0 -180z"/>
<path d="M2330 2180 l0 -180 210 0 210 0 0 180 0 180 -210 0 -210 0 0 -180z"/>
<path d="M1430 1470 l0 -150 45 0 45 0 0 59 0 59 53 4 c28 3 55 3 60 1 4 -2 7
-31 7 -64 l0 -59 43 0 42 0 0 148 0 147 -43 3 -42 3 0 -55 0 -56 -60 0 -60 0
0 55 0 55 -45 0 -45 0 0 -150z"/>
<path d="M2210 1577 l0 -43 -63 4 c-87 6 -97 -5 -97 -107 0 -63 4 -81 18 -94
22 -20 112 -23 130 -5 9 9 15 9 24 0 7 -7 29 -12 50 -12 37 0 38 1 38 35 0 19
-4 35 -10 35 -6 0 -10 45 -10 115 l0 115 -40 0 -40 0 0 -43z m0 -147 l0 -40
-40 0 -40 0 0 40 0 40 40 0 40 0 0 -40z"/>
<path d="M3040 1601 c-5 -11 -10 -47 -10 -80 0 -74 9 -81 114 -81 69 0 76 -2
76 -20 0 -19 -7 -20 -95 -20 l-95 0 0 -40 0 -40 124 0 c151 0 156 3 156 94 0
43 -5 67 -14 75 -8 7 -51 13 -98 14 -76 2 -83 4 -83 22 0 18 6 20 54 17 30 -2
69 -1 87 3 31 5 34 9 34 40 l0 35 -120 0 c-108 0 -120 -2 -130 -19z"/>
<path d="M1771 1488 c41 -104 69 -181 69 -189 0 -5 -11 -9 -25 -9 -22 0 -25
-4 -25 -35 0 -35 0 -35 44 -35 55 0 64 9 100 96 16 38 44 104 62 147 l32 77
-41 0 c-42 0 -42 0 -65 -58 -12 -32 -22 -63 -22 -70 0 -31 -18 -5 -39 58 l-24
70 -43 0 -44 0 21 -52z"/>
<path d="M2340 1430 l0 -110 40 0 40 0 0 75 0 75 30 0 c25 0 30 -4 30 -25 0
-22 4 -25 35 -25 l36 0 -3 58 -3 57 -102 2 -103 2 0 -109z"/>
<path d="M2607 1522 c-13 -14 -17 -38 -17 -90 0 -100 13 -112 120 -112 108 0
120 12 120 113 0 99 -9 107 -122 107 -70 0 -88 -3 -101 -18z m143 -92 l0 -40
-40 0 -40 0 0 40 0 40 40 0 40 0 0 -40z"/>
<path d="M3344 1488 c3 -29 6 -101 6 -160 l0 -108 40 0 40 0 0 54 0 53 69 -5
c66 -4 70 -3 86 22 21 31 18 153 -4 180 -16 19 -111 22 -129 4 -9 -9 -15 -9
-24 0 -7 7 -30 12 -51 12 l-40 0 7 -52z m166 -59 l0 -40 -37 3 c-31 2 -39 7
-41 26 -6 39 5 52 43 52 34 0 35 -1 35 -41z"/>
<path d="M3654 1526 c-16 -12 -19 -27 -19 -94 0 -107 5 -112 111 -112 l84 0 0
35 0 34 -55 3 c-81 4 -67 23 20 26 l75 3 0 47 c0 27 -5 53 -12 60 -18 18 -179
16 -204 -2z m144 -68 c-5 -14 -51 -23 -74 -14 -27 10 -4 26 37 26 28 0 39 -4
37 -12z"/>
<path d="M3927 1522 c-13 -14 -17 -38 -17 -94 0 -100 9 -108 118 -108 l82 0 0
35 0 35 -60 0 -60 0 0 40 0 40 60 0 60 0 0 35 0 35 -83 0 c-69 0 -87 -3 -100
-18z"/>
</g>
</svg>
